<svg width="115" height="30" viewBox="0 0 115 30" fill="none" xmlns="http://www.w3.org/2000/svg">
<path fill-rule="evenodd" clip-rule="evenodd" d="M15.215 8.74791C13.1196 8.59016 8.86853 8.25597 5.76812 8.00484L0.130857 7.54802L0.64579 8.68176C1.57078 10.7179 2.86393 12.1448 3.70827 12.0609C5.99949 11.8334 18.5824 9.5326 18.7854 9.30374C18.9171 9.15541 17.3103 8.90536 15.215 8.74791ZM8.5615 13.4244C6.55136 13.7852 4.82438 14.1269 4.7236 14.1834C4.55874 14.2759 7.97969 18.3742 8.85251 19.1297C9.10074 19.3447 9.63237 18.5279 10.596 16.4495C11.3585 14.8052 12.0348 13.3043 12.0991 13.1139C12.1636 12.9238 10.5716 13.0635 8.5615 13.4244Z" fill="#140C00"/>
<path d="M31.2765 25.1125H29.1217L23.9682 18.1783L22.4887 19.4797V25.1125H20.6616V12.9708H20.9887H21.3167H22.4887V17.7512L23.7398 16.3703L28.9132 10.5885H31.0481L25.2988 16.9167L31.2765 25.1125Z" fill="#140C00"/>
<path d="M37.6386 25.1125H35.8513V14.2046H37.6386V25.1125ZM35.7123 11.2541C35.7123 10.8567 35.8116 10.5686 36.0102 10.3898C36.2154 10.211 36.4669 10.1216 36.7648 10.1216C37.0428 10.1216 37.2845 10.211 37.4897 10.3898C37.7015 10.5686 37.8074 10.8567 37.8074 11.2541C37.8074 11.6448 37.7015 11.9329 37.4897 12.1184C37.2845 12.3038 37.0428 12.3965 36.7648 12.3965C36.4669 12.3965 36.2154 12.3038 36.0102 12.1184C35.8116 11.9329 35.7123 11.6448 35.7123 11.2541Z" fill="#140C00"/>
<path d="M51.3686 25.1125V18.1386C51.3686 17.2511 51.17 16.5922 50.7728 16.1617C50.3823 15.7246 49.7666 15.506 48.9259 15.506C47.8072 15.506 46.9929 15.8173 46.4832 16.4398C45.9801 17.0558 45.7285 18.0624 45.7285 19.4599V25.1125H43.9412V14.2046H45.381L45.6491 15.6948H45.7484C46.086 15.1583 46.5593 14.7444 47.1684 14.453C47.7774 14.1549 48.4493 14.0059 49.1841 14.0059C50.5213 14.0059 51.5143 14.3304 52.163 14.9795C52.8117 15.6285 53.1361 16.6385 53.1361 18.0095V25.1125H51.3686Z" fill="#140C00"/>
<path d="M63.0034 23.8509C63.2351 23.8509 63.5065 23.8277 63.8177 23.7813C64.1288 23.735 64.3638 23.682 64.5227 23.6224V24.9933C64.3572 25.0662 64.099 25.1357 63.7482 25.2019C63.4039 25.2748 63.0531 25.3112 62.6956 25.3112C60.564 25.3112 59.4983 24.1886 59.4983 21.9435V15.5954H57.9592V14.7411L59.5181 14.0258L60.2331 11.7011H61.2955V14.2046H64.4432V15.5954H61.2955V21.8938C61.2955 22.523 61.4445 23.0064 61.7424 23.3442C62.0469 23.682 62.4672 23.8509 63.0034 23.8509Z" fill="#140C00"/>
<path d="M76.654 22.1024C76.654 23.1223 76.2734 23.9138 75.5121 24.4767C74.7508 25.033 73.6817 25.3112 72.3048 25.3112C70.8683 25.3112 69.7264 25.0827 68.879 24.6257V22.9965C70.0772 23.5793 71.2324 23.8707 72.3445 23.8707C73.2448 23.8707 73.9002 23.725 74.3106 23.4336C74.721 23.1422 74.9262 22.7515 74.9262 22.2614C74.9262 21.8309 74.7276 21.4666 74.3304 21.1686C73.9399 20.8706 73.2415 20.5295 72.2353 20.1453C71.2092 19.748 70.4876 19.4102 70.0706 19.132C69.6536 18.8473 69.3457 18.5294 69.1471 18.1783C68.9552 17.8273 68.8592 17.4002 68.8592 16.8968C68.8592 16.0027 69.2233 15.2974 69.9514 14.7808C70.6796 14.2642 71.6792 14.0059 72.9502 14.0059C74.1881 14.0059 75.3466 14.251 76.4256 14.7411L75.8199 16.1617C74.7144 15.6981 73.7181 15.4663 72.8311 15.4663C72.0896 15.4663 71.527 15.5855 71.143 15.8239C70.7591 16.0557 70.5671 16.3769 70.5671 16.7875C70.5671 17.1849 70.7326 17.5161 71.0636 17.781C71.3946 18.0393 72.1658 18.4002 73.3772 18.8638C74.2841 19.2016 74.9527 19.5162 75.383 19.8076C75.8199 20.099 76.141 20.4268 76.3462 20.7911C76.5514 21.1553 76.654 21.5924 76.654 22.1024Z" fill="#140C00"/>
<path d="M83.8403 14.2046V21.2282C83.8403 22.109 84.0356 22.7647 84.4262 23.1952C84.8234 23.6191 85.4357 23.831 86.2632 23.831C87.3819 23.831 88.1961 23.5197 88.7059 22.8972C89.2156 22.2746 89.4704 21.2712 89.4704 19.8871V14.2046H91.2677V25.1125H89.7981L89.54 23.672H89.4506C89.1262 24.1952 88.6661 24.5992 88.0704 24.884C87.4746 25.1688 86.7828 25.3112 85.9951 25.3112C84.6843 25.3112 83.6947 24.9966 83.0261 24.3674C82.3641 23.7383 82.0331 22.7316 82.0331 21.3474V14.2046H83.8403Z" fill="#140C00"/>
<path d="M101.721 23.8509C102.82 23.8509 103.617 23.5561 104.114 22.9667C104.617 22.3706 104.869 21.4169 104.869 20.1056V19.6784C104.869 18.2214 104.617 17.1617 104.114 16.4994C103.611 15.8371 102.8 15.506 101.681 15.506C100.768 15.506 100.059 15.8703 99.5562 16.5988C99.0598 17.3207 98.8115 18.3539 98.8115 19.6983C98.8115 21.0494 99.0531 22.0792 99.5364 22.7879C100.026 23.4965 100.754 23.8509 101.721 23.8509ZM104.849 25.0132L104.908 23.672H104.829C104.094 24.7648 102.969 25.3112 101.453 25.3112C100.043 25.3112 98.9406 24.8211 98.1462 23.8409C97.3585 22.8541 96.9646 21.4666 96.9646 19.6784C96.9646 17.9234 97.3618 16.5392 98.1562 15.5259C98.9571 14.5126 100.049 14.0059 101.433 14.0059C102.909 14.0059 104.048 14.5556 104.849 15.655H104.958L105.196 14.2046H106.616V25.2913C106.616 26.8543 106.219 28.0299 105.425 28.818C104.637 29.6062 103.409 30.0002 101.741 30.0002C100.152 30.0002 98.8446 29.7684 97.8185 29.3048V27.6557C98.8777 28.2253 100.218 28.5101 101.84 28.5101C102.767 28.5101 103.498 28.2385 104.035 27.6955C104.577 27.1524 104.849 26.4007 104.849 25.4404V25.0132Z" fill="#140C00"/>
<path d="M114.716 25.1125H112.929V14.2046H114.716V25.1125ZM112.79 11.2541C112.79 10.8567 112.889 10.5686 113.088 10.3898C113.293 10.211 113.544 10.1216 113.842 10.1216C114.12 10.1216 114.362 10.211 114.567 10.3898C114.779 10.5686 114.885 10.8567 114.885 11.2541C114.885 11.6448 114.779 11.9329 114.567 12.1184C114.362 12.3038 114.12 12.3965 113.842 12.3965C113.544 12.3965 113.293 12.3038 113.088 12.1184C112.889 11.9329 112.79 11.6448 112.79 11.2541Z" fill="#140C00"/>
</svg>
